# xmcd
#
# Track frame offsets: 
#        150
#        17970
#        35776
#        53161
#        70086
#        88447
#        105654
#        120852
#        140098
#        161403
#        182966
#        200286
#        221116
#        238725
#        314276
#
# Disc length: 4637 seconds
#
# Revision: 2
# Processed by: cddbd v1.5.2PL0 Copyright (c) Steve Scherf et al.
# Submitted via: ExactAudioCopy v1.1
#
DISCID=de121b0f
DTITLE=Giorgia - Ladra di vento
DYEAR=2003
DGENRE=Italo
TTITLE0=Spirito libero
TTITLE1=Vetro sul cuore
TTITLE2=Vento nel deserto
TTITLE3=La gatta (sul tetto)
TTITLE4=Viaggio della mente
TTITLE5=Scivoli di ghiaccio
TTITLE6=Tokica
TTITLE7=Il lupo
TTITLE8=L'eternita
TTITLE9=Nouveau sourire
TTITLE10=Come si fa?
TTITLE11=So Beautiful
TTITLE12=Per sempre
TTITLE13=Gocce di memoria
TTITLE14=Daten-CD
EXTD=
EXTT0=
EXTT1=
EXTT2=
EXTT3=
EXTT4=
EXTT5=
EXTT6=
EXTT7=
EXTT8=
EXTT9=
EXTT10=
EXTT11=
EXTT12=
EXTT13=
EXTT14=
PLAYORDER=
